<?xml version="1.0" standalone="no"?><!DOCTYPE svg PUBLIC "-//W3C//DTD SVG 1.1//EN" "http://www.w3.org/Graphics/SVG/1.1/DTD/svg11.dtd"><svg t="1603878476439" class="icon" viewBox="0 0 1024 1024" version="1.1" xmlns="http://www.w3.org/2000/svg" p-id="997" xmlns:xlink="http://www.w3.org/1999/xlink" width="200" height="200"><defs><style type="text/css"></style></defs><path d="M260.102 90.125l69.44 21.82c-9.259 19.395-17.36 38.79-24.304 58.185h211.79v69.095H395.51c18.518 24.244 37.035 50.913 55.552 80.005l-72.912 40.003a1168.76 1168.76 0 0 0-62.495-120.008h-45.136l-38.191 61.822c-13.888 19.396-32.405 41.215-55.552 65.46l-62.496-47.277c67.126-67.883 115.733-144.25 145.823-229.105z m361.086 0l65.967 21.82c-6.944 19.395-15.045 38.79-24.304 58.185h246.51v69.095h-142.35c18.517 24.244 34.72 49.7 48.607 76.369l-62.495 40.002c-20.832-41.215-42.821-80.005-65.968-116.37h-55.551c-23.147 43.639-53.237 84.853-90.272 123.644l-62.495-47.276c64.81-67.884 112.26-143.04 142.35-225.469zM298.294 344.687c32.405 31.517 59.023 65.458 79.855 101.824l-65.967 36.366c-16.203-33.942-40.506-67.883-72.912-101.825l59.024-36.365z m118.047 32.729h447.885v458.21c0 31.518-6.944 55.762-20.832 72.733-13.888 16.97-34.72 25.456-62.496 25.456-23.146 0-50.922-1.212-83.327-3.637l-17.36-69.095c37.035 2.424 67.125 3.636 90.272 3.636 16.202 0 24.303-16.97 24.303-50.912V439.238H416.341v-61.822z m-236.094 98.188h69.44v458.21h-69.44v-458.21z m489.548 40.002v312.748H350.374V515.606h319.421z m-65.967 123.645v-61.822H416.34v61.822h187.487zM416.34 697.436v69.095h187.487v-69.095H416.34z" fill="#707070" p-id="998"></path></svg>